<mxfile host="app.diagrams.net" agent="Mozilla/5.0 (Windows NT 10.0; Win64; x64; rv:133.0) Gecko/20100101 Firefox/133.0" version="25.0.3" pages="3">
  <diagram name="Kühlschrank 1" id="9Ruk_8tkfM5cF7THJwEC">
    <mxGraphModel dx="1739" dy="840" grid="0" gridSize="10" guides="1" tooltips="1" connect="1" arrows="1" fold="1" page="1" pageScale="1" pageWidth="827" pageHeight="1169" background="none" math="0" shadow="0">
      <root>
        <mxCell id="0" />
        <mxCell id="1" parent="0" />
        <mxCell id="JuJ3DqJ_SCS9Mhw3Uely-31" value="START" style="ellipse;whiteSpace=wrap;html=1;aspect=fixed;" parent="1" vertex="1">
          <mxGeometry x="54" y="256" width="80" height="80" as="geometry" />
        </mxCell>
        <mxCell id="JuJ3DqJ_SCS9Mhw3Uely-33" value="&lt;div&gt;&lt;br/&gt;&lt;/div&gt;" style="rounded=0;whiteSpace=wrap;html=1;" parent="1" vertex="1">
          <mxGeometry x="201" y="266" width="90" height="60" as="geometry" />
        </mxCell>
        <mxCell id="JuJ3DqJ_SCS9Mhw3Uely-38" value="STOPP" style="ellipse;whiteSpace=wrap;html=1;aspect=fixed;" parent="1" vertex="1">
          <mxGeometry x="670" y="256" width="80" height="80" as="geometry" />
        </mxCell>
      </root>
    </mxGraphModel>
  </diagram>
  <diagram id="VrSdby_IhNP7EbGO6Jtk" name="Kühlschrank 2">
    <mxGraphModel dx="2139" dy="840" grid="0" gridSize="10" guides="1" tooltips="1" connect="1" arrows="1" fold="1" page="0" pageScale="1" pageWidth="827" pageHeight="1169" math="0" shadow="0">
      <root>
        <mxCell id="0" />
        <mxCell id="1" parent="0" />
        <mxCell id="3foztp1Kqjpem9RvyrNy-1" value="" style="edgeStyle=none;curved=1;rounded=0;orthogonalLoop=1;jettySize=auto;html=1;fontSize=12;startSize=8;endSize=8;entryX=0;entryY=0.5;entryDx=0;entryDy=0;" edge="1" source="3foztp1Kqjpem9RvyrNy-2" target="3foztp1Kqjpem9RvyrNy-12" parent="1">
          <mxGeometry relative="1" as="geometry" />
        </mxCell>
        <mxCell id="3foztp1Kqjpem9RvyrNy-2" value="" style="ellipse;whiteSpace=wrap;html=1;aspect=fixed;" vertex="1" parent="1">
          <mxGeometry x="-144" y="163.5" width="80" height="80" as="geometry" />
        </mxCell>
        <mxCell id="3foztp1Kqjpem9RvyrNy-3" value="" style="edgeStyle=none;curved=1;rounded=0;orthogonalLoop=1;jettySize=auto;html=1;fontSize=12;startSize=8;endSize=8;" edge="1" source="3foztp1Kqjpem9RvyrNy-4" target="3foztp1Kqjpem9RvyrNy-6" parent="1">
          <mxGeometry relative="1" as="geometry" />
        </mxCell>
        <mxCell id="3foztp1Kqjpem9RvyrNy-4" value="" style="rounded=0;whiteSpace=wrap;html=1;" vertex="1" parent="1">
          <mxGeometry x="298" y="173.5" width="120" height="60" as="geometry" />
        </mxCell>
        <mxCell id="3foztp1Kqjpem9RvyrNy-5" value="" style="edgeStyle=none;curved=1;rounded=0;orthogonalLoop=1;jettySize=auto;html=1;fontSize=12;startSize=8;endSize=8;" edge="1" source="3foztp1Kqjpem9RvyrNy-6" target="3foztp1Kqjpem9RvyrNy-8" parent="1">
          <mxGeometry relative="1" as="geometry" />
        </mxCell>
        <mxCell id="3foztp1Kqjpem9RvyrNy-6" value="" style="rounded=0;whiteSpace=wrap;html=1;" vertex="1" parent="1">
          <mxGeometry x="301" y="268" width="120" height="60" as="geometry" />
        </mxCell>
        <mxCell id="3foztp1Kqjpem9RvyrNy-7" value="" style="edgeStyle=none;curved=1;rounded=0;orthogonalLoop=1;jettySize=auto;html=1;fontSize=12;startSize=8;endSize=8;" edge="1" source="3foztp1Kqjpem9RvyrNy-8" target="3foztp1Kqjpem9RvyrNy-9" parent="1">
          <mxGeometry relative="1" as="geometry" />
        </mxCell>
        <mxCell id="3foztp1Kqjpem9RvyrNy-8" value="" style="rounded=0;whiteSpace=wrap;html=1;" vertex="1" parent="1">
          <mxGeometry x="481" y="272" width="120" height="60" as="geometry" />
        </mxCell>
        <mxCell id="3foztp1Kqjpem9RvyrNy-9" value="" style="ellipse;whiteSpace=wrap;html=1;aspect=fixed;" vertex="1" parent="1">
          <mxGeometry x="497" y="157" width="80" height="80" as="geometry" />
        </mxCell>
        <mxCell id="3foztp1Kqjpem9RvyrNy-10" value="" style="edgeStyle=none;curved=1;rounded=0;orthogonalLoop=1;jettySize=auto;html=1;fontSize=12;startSize=8;endSize=8;" edge="1" source="3foztp1Kqjpem9RvyrNy-12" target="3foztp1Kqjpem9RvyrNy-15" parent="1">
          <mxGeometry relative="1" as="geometry" />
        </mxCell>
        <mxCell id="3foztp1Kqjpem9RvyrNy-11" value="" style="edgeStyle=none;curved=0;rounded=0;orthogonalLoop=1;jettySize=auto;html=1;fontSize=12;startSize=8;endSize=8;entryX=0;entryY=0.5;entryDx=0;entryDy=0;" edge="1" source="3foztp1Kqjpem9RvyrNy-12" target="3foztp1Kqjpem9RvyrNy-6" parent="1">
          <mxGeometry relative="1" as="geometry">
            <mxPoint x="298" y="302" as="targetPoint" />
            <Array as="points">
              <mxPoint x="37" y="302" />
            </Array>
          </mxGeometry>
        </mxCell>
        <mxCell id="3foztp1Kqjpem9RvyrNy-12" value="" style="rhombus;whiteSpace=wrap;html=1;" vertex="1" parent="1">
          <mxGeometry x="-31" y="142" width="131" height="123" as="geometry" />
        </mxCell>
        <mxCell id="3foztp1Kqjpem9RvyrNy-13" value="" style="edgeStyle=none;curved=1;rounded=0;orthogonalLoop=1;jettySize=auto;html=1;fontSize=12;startSize=8;endSize=8;" edge="1" source="3foztp1Kqjpem9RvyrNy-15" target="3foztp1Kqjpem9RvyrNy-4" parent="1">
          <mxGeometry relative="1" as="geometry" />
        </mxCell>
        <mxCell id="3foztp1Kqjpem9RvyrNy-14" value="" style="edgeStyle=none;curved=0;rounded=0;orthogonalLoop=1;jettySize=auto;html=1;fontSize=12;startSize=8;endSize=8;entryX=0;entryY=0.5;entryDx=0;entryDy=0;exitX=0.5;exitY=0;exitDx=0;exitDy=0;" edge="1" source="3foztp1Kqjpem9RvyrNy-15" target="3foztp1Kqjpem9RvyrNy-19" parent="1">
          <mxGeometry relative="1" as="geometry">
            <mxPoint x="288" y="102" as="targetPoint" />
            <Array as="points">
              <mxPoint x="191" y="98" />
            </Array>
          </mxGeometry>
        </mxCell>
        <mxCell id="3foztp1Kqjpem9RvyrNy-15" value="" style="rhombus;whiteSpace=wrap;html=1;" vertex="1" parent="1">
          <mxGeometry x="128" y="142" width="131" height="123" as="geometry" />
        </mxCell>
        <mxCell id="3foztp1Kqjpem9RvyrNy-16" value="nein" style="text;html=1;align=center;verticalAlign=middle;whiteSpace=wrap;rounded=0;fontSize=16;" vertex="1" parent="1">
          <mxGeometry x="78" y="166" width="60" height="30" as="geometry" />
        </mxCell>
        <mxCell id="3foztp1Kqjpem9RvyrNy-17" value="ja" style="text;html=1;align=center;verticalAlign=middle;whiteSpace=wrap;rounded=0;fontSize=16;" vertex="1" parent="1">
          <mxGeometry x="246" y="163.5" width="60" height="30" as="geometry" />
        </mxCell>
        <mxCell id="3foztp1Kqjpem9RvyrNy-18" value="ja" style="text;html=1;align=center;verticalAlign=middle;whiteSpace=wrap;rounded=0;fontSize=16;" vertex="1" parent="1">
          <mxGeometry x="29" y="268" width="60" height="30" as="geometry" />
        </mxCell>
        <mxCell id="3foztp1Kqjpem9RvyrNy-19" value="" style="rounded=0;whiteSpace=wrap;html=1;" vertex="1" parent="1">
          <mxGeometry x="298" y="68" width="120" height="60" as="geometry" />
        </mxCell>
        <mxCell id="3foztp1Kqjpem9RvyrNy-20" value="nein" style="text;html=1;align=center;verticalAlign=middle;whiteSpace=wrap;rounded=0;fontSize=16;" vertex="1" parent="1">
          <mxGeometry x="140" y="104" width="60" height="30" as="geometry" />
        </mxCell>
        <mxCell id="3foztp1Kqjpem9RvyrNy-21" value="" style="edgeStyle=none;curved=0;rounded=0;orthogonalLoop=1;jettySize=auto;html=1;fontSize=12;startSize=8;endSize=8;exitX=1;exitY=0.5;exitDx=0;exitDy=0;" edge="1" source="3foztp1Kqjpem9RvyrNy-19" target="3foztp1Kqjpem9RvyrNy-9" parent="1">
          <mxGeometry relative="1" as="geometry">
            <mxPoint x="533" y="100" as="sourcePoint" />
            <Array as="points">
              <mxPoint x="537" y="98" />
            </Array>
          </mxGeometry>
        </mxCell>
      </root>
    </mxGraphModel>
  </diagram>
  <diagram id="tlQBnGXkcOcBxZBHjALd" name="Kühlschrank 3">
    <mxGraphModel dx="2139" dy="840" grid="0" gridSize="10" guides="1" tooltips="1" connect="1" arrows="1" fold="1" page="0" pageScale="1" pageWidth="827" pageHeight="1169" math="0" shadow="0">
      <root>
        <mxCell id="0" />
        <mxCell id="1" parent="0" />
        <mxCell id="mlIxCgnJoaR7WWdMW13j-1" value="" style="edgeStyle=none;curved=1;rounded=0;orthogonalLoop=1;jettySize=auto;html=1;fontSize=12;startSize=8;endSize=8;entryX=0;entryY=0.5;entryDx=0;entryDy=0;" edge="1" source="mlIxCgnJoaR7WWdMW13j-2" target="mlIxCgnJoaR7WWdMW13j-11" parent="1">
          <mxGeometry relative="1" as="geometry" />
        </mxCell>
        <mxCell id="mlIxCgnJoaR7WWdMW13j-2" value="START" style="ellipse;whiteSpace=wrap;html=1;aspect=fixed;" vertex="1" parent="1">
          <mxGeometry x="-330" y="328.17" width="80" height="80" as="geometry" />
        </mxCell>
        <mxCell id="mlIxCgnJoaR7WWdMW13j-3" value="" style="edgeStyle=none;curved=1;rounded=0;orthogonalLoop=1;jettySize=auto;html=1;fontSize=12;startSize=8;endSize=8;" edge="1" source="mlIxCgnJoaR7WWdMW13j-4" target="mlIxCgnJoaR7WWdMW13j-23" parent="1">
          <mxGeometry relative="1" as="geometry" />
        </mxCell>
        <mxCell id="mlIxCgnJoaR7WWdMW13j-4" value="" style="rounded=0;whiteSpace=wrap;html=1;" vertex="1" parent="1">
          <mxGeometry x="18" y="338.17" width="90" height="60" as="geometry" />
        </mxCell>
        <mxCell id="mlIxCgnJoaR7WWdMW13j-5" value="" style="edgeStyle=none;curved=1;rounded=0;orthogonalLoop=1;jettySize=auto;html=1;fontSize=12;startSize=8;endSize=8;" edge="1" source="mlIxCgnJoaR7WWdMW13j-6" target="mlIxCgnJoaR7WWdMW13j-8" parent="1">
          <mxGeometry relative="1" as="geometry" />
        </mxCell>
        <mxCell id="mlIxCgnJoaR7WWdMW13j-6" value="" style="rounded=0;whiteSpace=wrap;html=1;" vertex="1" parent="1">
          <mxGeometry x="160" y="432.66999999999996" width="89" height="60" as="geometry" />
        </mxCell>
        <mxCell id="mlIxCgnJoaR7WWdMW13j-7" value="" style="edgeStyle=none;curved=1;rounded=0;orthogonalLoop=1;jettySize=auto;html=1;fontSize=12;startSize=8;endSize=8;" edge="1" source="mlIxCgnJoaR7WWdMW13j-8" target="mlIxCgnJoaR7WWdMW13j-9" parent="1">
          <mxGeometry relative="1" as="geometry" />
        </mxCell>
        <mxCell id="mlIxCgnJoaR7WWdMW13j-8" value="" style="rounded=0;whiteSpace=wrap;html=1;" vertex="1" parent="1">
          <mxGeometry x="318" y="432.66999999999996" width="120" height="60" as="geometry" />
        </mxCell>
        <mxCell id="mlIxCgnJoaR7WWdMW13j-9" value="STOPP" style="ellipse;whiteSpace=wrap;html=1;aspect=fixed;" vertex="1" parent="1">
          <mxGeometry x="338" y="310" width="80" height="80" as="geometry" />
        </mxCell>
        <mxCell id="mlIxCgnJoaR7WWdMW13j-10" value="" style="edgeStyle=none;curved=1;rounded=0;orthogonalLoop=1;jettySize=auto;html=1;fontSize=12;startSize=8;endSize=8;" edge="1" source="mlIxCgnJoaR7WWdMW13j-11" target="mlIxCgnJoaR7WWdMW13j-14" parent="1">
          <mxGeometry relative="1" as="geometry" />
        </mxCell>
        <mxCell id="mlIxCgnJoaR7WWdMW13j-11" value="" style="rhombus;whiteSpace=wrap;html=1;" vertex="1" parent="1">
          <mxGeometry x="-221" y="322.34" width="92" height="91.67" as="geometry" />
        </mxCell>
        <mxCell id="mlIxCgnJoaR7WWdMW13j-12" value="" style="edgeStyle=none;curved=0;rounded=0;orthogonalLoop=1;jettySize=auto;html=1;fontSize=12;startSize=8;endSize=8;entryX=0;entryY=0.5;entryDx=0;entryDy=0;exitX=0.5;exitY=0;exitDx=0;exitDy=0;" edge="1" source="mlIxCgnJoaR7WWdMW13j-14" target="mlIxCgnJoaR7WWdMW13j-18" parent="1">
          <mxGeometry relative="1" as="geometry">
            <mxPoint x="118" y="266.67" as="targetPoint" />
            <Array as="points">
              <mxPoint x="-61" y="255" />
            </Array>
          </mxGeometry>
        </mxCell>
        <mxCell id="mlIxCgnJoaR7WWdMW13j-13" value="" style="edgeStyle=none;curved=1;rounded=0;orthogonalLoop=1;jettySize=auto;html=1;fontSize=12;startSize=8;endSize=8;" edge="1" source="mlIxCgnJoaR7WWdMW13j-14" target="mlIxCgnJoaR7WWdMW13j-4" parent="1">
          <mxGeometry relative="1" as="geometry" />
        </mxCell>
        <mxCell id="mlIxCgnJoaR7WWdMW13j-14" value="" style="rhombus;whiteSpace=wrap;html=1;" vertex="1" parent="1">
          <mxGeometry x="-110" y="318.67" width="104" height="99" as="geometry" />
        </mxCell>
        <mxCell id="mlIxCgnJoaR7WWdMW13j-15" value="nein" style="text;html=1;align=center;verticalAlign=middle;whiteSpace=wrap;rounded=0;fontSize=16;" vertex="1" parent="1">
          <mxGeometry x="-151" y="328.67" width="60" height="30" as="geometry" />
        </mxCell>
        <mxCell id="mlIxCgnJoaR7WWdMW13j-16" value="ja" style="text;html=1;align=center;verticalAlign=middle;whiteSpace=wrap;rounded=0;fontSize=16;" vertex="1" parent="1">
          <mxGeometry x="-23" y="335" width="60" height="30" as="geometry" />
        </mxCell>
        <mxCell id="mlIxCgnJoaR7WWdMW13j-17" value="ja" style="text;html=1;align=center;verticalAlign=middle;whiteSpace=wrap;rounded=0;fontSize=16;" vertex="1" parent="1">
          <mxGeometry x="-189" y="408.16999999999996" width="60" height="30" as="geometry" />
        </mxCell>
        <mxCell id="mlIxCgnJoaR7WWdMW13j-18" value="" style="rounded=0;whiteSpace=wrap;html=1;" vertex="1" parent="1">
          <mxGeometry x="143" y="225" width="120" height="60" as="geometry" />
        </mxCell>
        <mxCell id="mlIxCgnJoaR7WWdMW13j-19" value="nein" style="text;html=1;align=center;verticalAlign=middle;whiteSpace=wrap;rounded=0;fontSize=16;" vertex="1" parent="1">
          <mxGeometry x="-61.5" y="280" width="60" height="30" as="geometry" />
        </mxCell>
        <mxCell id="mlIxCgnJoaR7WWdMW13j-20" value="" style="edgeStyle=none;curved=0;rounded=0;orthogonalLoop=1;jettySize=auto;html=1;fontSize=12;startSize=8;endSize=8;exitX=1;exitY=0.5;exitDx=0;exitDy=0;" edge="1" source="mlIxCgnJoaR7WWdMW13j-18" target="mlIxCgnJoaR7WWdMW13j-9" parent="1">
          <mxGeometry relative="1" as="geometry">
            <mxPoint x="363" y="264.67" as="sourcePoint" />
            <Array as="points">
              <mxPoint x="378" y="255" />
            </Array>
          </mxGeometry>
        </mxCell>
        <mxCell id="mlIxCgnJoaR7WWdMW13j-21" value="" style="edgeStyle=none;curved=1;rounded=0;orthogonalLoop=1;jettySize=auto;html=1;fontSize=12;startSize=8;endSize=8;" edge="1" source="mlIxCgnJoaR7WWdMW13j-23" target="mlIxCgnJoaR7WWdMW13j-18" parent="1">
          <mxGeometry relative="1" as="geometry" />
        </mxCell>
        <mxCell id="mlIxCgnJoaR7WWdMW13j-22" value="" style="edgeStyle=none;curved=1;rounded=0;orthogonalLoop=1;jettySize=auto;html=1;fontSize=12;startSize=8;endSize=8;" edge="1" source="mlIxCgnJoaR7WWdMW13j-23" target="mlIxCgnJoaR7WWdMW13j-6" parent="1">
          <mxGeometry relative="1" as="geometry" />
        </mxCell>
        <mxCell id="mlIxCgnJoaR7WWdMW13j-23" value="" style="rhombus;whiteSpace=wrap;html=1;" vertex="1" parent="1">
          <mxGeometry x="163" y="328.16999999999996" width="80" height="80" as="geometry" />
        </mxCell>
        <mxCell id="mlIxCgnJoaR7WWdMW13j-24" value="" style="endArrow=classic;html=1;rounded=0;fontSize=12;startSize=8;endSize=8;curved=0;exitX=0.5;exitY=1;exitDx=0;exitDy=0;entryX=0;entryY=0.5;entryDx=0;entryDy=0;" edge="1" source="mlIxCgnJoaR7WWdMW13j-11" target="mlIxCgnJoaR7WWdMW13j-23" parent="1">
          <mxGeometry width="50" height="50" relative="1" as="geometry">
            <mxPoint x="42" y="462" as="sourcePoint" />
            <mxPoint x="92" y="412" as="targetPoint" />
            <Array as="points">
              <mxPoint x="-173" y="458" />
              <mxPoint x="132" y="454" />
              <mxPoint x="129" y="368" />
            </Array>
          </mxGeometry>
        </mxCell>
        <mxCell id="mlIxCgnJoaR7WWdMW13j-25" value="ja" style="text;html=1;align=center;verticalAlign=middle;whiteSpace=wrap;rounded=0;fontSize=16;" vertex="1" parent="1">
          <mxGeometry x="210" y="398.16999999999996" width="60" height="30" as="geometry" />
        </mxCell>
        <mxCell id="mlIxCgnJoaR7WWdMW13j-26" value="nein" style="text;html=1;align=center;verticalAlign=middle;whiteSpace=wrap;rounded=0;fontSize=16;" vertex="1" parent="1">
          <mxGeometry x="216" y="298.67" width="60" height="30" as="geometry" />
        </mxCell>
      </root>
    </mxGraphModel>
  </diagram>
</mxfile>
